<svg xmlns="http://www.w3.org/2000/svg" xmlns:xlink="http://www.w3.org/1999/xlink" width="1600" zoomAndPan="magnify" viewBox="0 0 1200 299.999988" height="400" preserveAspectRatio="xMidYMid meet" version="1.0"><defs><g/></defs><g fill="#098aea" fill-opacity="1"><g transform="translate(32.26174, 213.374983)"><g><path d="M 50.359375 -53.203125 C 55.648438 -53.203125 59.5625 -54.4375 62.09375 -56.90625 C 64.625 -59.375 65.890625 -63.1875 65.890625 -68.34375 C 65.890625 -73.539062 64.453125 -77.210938 61.578125 -79.359375 C 58.710938 -81.515625 54.453125 -82.59375 48.796875 -82.59375 L 31.015625 -82.59375 L 31.015625 -53.203125 Z M 31.015625 0 L 10.171875 0 L 10.171875 -99.765625 L 55.71875 -99.765625 C 65.21875 -99.765625 72.757812 -96.910156 78.34375 -91.203125 C 83.9375 -85.503906 86.734375 -77.703125 86.734375 -67.796875 C 86.734375 -59.242188 83.992188 -51.800781 78.515625 -45.46875 C 73.046875 -39.132812 65.175781 -35.96875 54.90625 -35.96875 L 31.015625 -35.96875 Z M 31.015625 0 "/></g></g></g><g fill="#098aea" fill-opacity="1"><g transform="translate(124.073264, 213.374983)"><g><path d="M 36.171875 -37.796875 L 61.625 -37.796875 L 49.203125 -77.296875 L 48.921875 -77.296875 Z M 23.6875 0 L 1.703125 0 L 37.25 -99.765625 L 61.34375 -99.765625 L 96.5 0 L 73.828125 0 L 67.453125 -20.5625 L 30.609375 -20.5625 Z M 23.6875 0 "/></g></g></g><g fill="#098aea" fill-opacity="1"><g transform="translate(222.263415, 213.374983)"><g><path d="M 53 0 L 32.171875 0 L 32.171875 -82.109375 L 2.03125 -82.109375 L 2.03125 -99.765625 L 83.203125 -99.765625 L 83.203125 -82.109375 L 53 -82.109375 Z M 53 0 "/></g></g></g><g fill="#098aea" fill-opacity="1"><g transform="translate(307.492721, 213.374983)"><g><path d="M 90.796875 -99.765625 L 90.796875 0 L 69.96875 0 L 69.96875 -44.71875 L 31.015625 -44.71875 L 31.015625 0 L 10.171875 0 L 10.171875 -99.765625 L 31.015625 -99.765625 L 31.015625 -61.953125 L 69.96875 -61.953125 L 69.96875 -99.765625 Z M 90.796875 -99.765625 "/></g></g></g><g fill="#098aea" fill-opacity="1"><g transform="translate(408.465033, 213.374983)"><g/></g></g><g fill="#098aea" fill-opacity="1"><g transform="translate(445.786777, 213.374983)"><g><path d="M 53 0 L 32.171875 0 L 32.171875 -82.109375 L 2.03125 -82.109375 L 2.03125 -99.765625 L 83.203125 -99.765625 L 83.203125 -82.109375 L 53 -82.109375 Z M 53 0 "/></g></g></g><g fill="#098aea" fill-opacity="1"><g transform="translate(531.016094, 213.374983)"><g><path d="M 26.609375 -49.875 C 26.609375 -38.289062 29.1875 -29.582031 34.34375 -23.75 C 39.5 -17.914062 46.035156 -15 53.953125 -15 C 61.867188 -15 68.328125 -18.003906 73.328125 -24.015625 C 78.328125 -30.035156 80.828125 -38.65625 80.828125 -49.875 C 80.828125 -61.09375 78.347656 -69.710938 73.390625 -75.734375 C 68.441406 -81.753906 61.875 -84.765625 53.6875 -84.765625 C 45.488281 -84.765625 38.925781 -81.765625 34 -75.765625 C 29.070312 -69.773438 26.609375 -61.144531 26.609375 -49.875 Z M 5.765625 -49.875 C 5.765625 -66.976562 10.21875 -80.007812 19.125 -88.96875 C 28.039062 -97.925781 39.515625 -102.40625 53.546875 -102.40625 C 67.566406 -102.40625 79.085938 -97.984375 88.109375 -89.140625 C 97.140625 -80.296875 101.65625 -67.207031 101.65625 -49.875 C 101.65625 -32.957031 97.222656 -19.972656 88.359375 -10.921875 C 79.492188 -1.878906 67.957031 2.640625 53.75 2.640625 C 40.21875 2.640625 28.835938 -1.644531 19.609375 -10.21875 C 10.378906 -18.789062 5.765625 -32.007812 5.765625 -49.875 Z M 5.765625 -49.875 "/></g></g></g><g fill="#098aea" fill-opacity="1"><g transform="translate(638.434909, 213.374983)"><g/></g></g><g fill="#098aea" fill-opacity="1"><g transform="translate(675.756653, 213.374983)"><g><path d="M 74.25 -67.109375 C 71.664062 -78.609375 64.289062 -84.359375 52.125 -84.359375 C 44.5625 -84.359375 38.539062 -81.28125 34.0625 -75.125 C 29.582031 -68.96875 27.34375 -60.414062 27.34375 -49.46875 C 27.34375 -39.195312 29.515625 -30.953125 33.859375 -24.734375 C 38.203125 -18.515625 44.289062 -15.40625 52.125 -15.40625 C 64.0625 -15.40625 71.4375 -21.671875 74.25 -34.203125 L 95.078125 -34.203125 C 93.585938 -23.972656 89.109375 -15.273438 81.640625 -8.109375 C 74.171875 -0.941406 64.195312 2.640625 51.71875 2.640625 C 37.78125 2.640625 26.691406 -1.957031 18.453125 -11.15625 C 10.222656 -20.363281 6.109375 -33.226562 6.109375 -49.75 C 6.109375 -65.53125 10.203125 -78.25 18.390625 -87.90625 C 26.578125 -97.570312 37.773438 -102.40625 51.984375 -102.40625 C 64.421875 -102.40625 74.472656 -99.046875 82.140625 -92.328125 C 89.816406 -85.609375 94.128906 -77.203125 95.078125 -67.109375 Z M 74.25 -67.109375 "/></g></g></g><g fill="#098aea" fill-opacity="1"><g transform="translate(776.25399, 213.374983)"><g><path d="M 31.015625 -18.046875 L 80.625 -18.046875 L 80.625 0 L 10.171875 0 L 10.171875 -99.765625 L 31.015625 -99.765625 Z M 31.015625 -18.046875 "/></g></g></g><g fill="#098aea" fill-opacity="1"><g transform="translate(859.243973, 213.374983)"><g><path d="M 26.609375 -49.875 C 26.609375 -38.289062 29.1875 -29.582031 34.34375 -23.75 C 39.5 -17.914062 46.035156 -15 53.953125 -15 C 61.867188 -15 68.328125 -18.003906 73.328125 -24.015625 C 78.328125 -30.035156 80.828125 -38.65625 80.828125 -49.875 C 80.828125 -61.09375 78.347656 -69.710938 73.390625 -75.734375 C 68.441406 -81.753906 61.875 -84.765625 53.6875 -84.765625 C 45.488281 -84.765625 38.925781 -81.765625 34 -75.765625 C 29.070312 -69.773438 26.609375 -61.144531 26.609375 -49.875 Z M 5.765625 -49.875 C 5.765625 -66.976562 10.21875 -80.007812 19.125 -88.96875 C 28.039062 -97.925781 39.515625 -102.40625 53.546875 -102.40625 C 67.566406 -102.40625 79.085938 -97.984375 88.109375 -89.140625 C 97.140625 -80.296875 101.65625 -67.207031 101.65625 -49.875 C 101.65625 -32.957031 97.222656 -19.972656 88.359375 -10.921875 C 79.492188 -1.878906 67.957031 2.640625 53.75 2.640625 C 40.21875 2.640625 28.835938 -1.644531 19.609375 -10.21875 C 10.378906 -18.789062 5.765625 -32.007812 5.765625 -49.875 Z M 5.765625 -49.875 "/></g></g></g><g fill="#098aea" fill-opacity="1"><g transform="translate(966.662788, 213.374983)"><g><path d="M 90.328125 -34.875 C 90.328125 -22.613281 86.921875 -13.296875 80.109375 -6.921875 C 73.304688 -0.546875 63.050781 2.640625 49.34375 2.640625 C 37.300781 2.640625 27.707031 -0.421875 20.5625 -6.546875 C 13.414062 -12.679688 9.84375 -21.765625 9.84375 -33.796875 L 9.84375 -99.765625 L 31.15625 -99.765625 L 31.15625 -35.015625 C 31.15625 -28.503906 32.757812 -23.539062 35.96875 -20.125 C 39.175781 -16.707031 43.789062 -15 49.8125 -15 C 55.875 -15 60.597656 -16.582031 63.984375 -19.75 C 67.378906 -22.914062 69.078125 -27.6875 69.078125 -34.0625 L 69.078125 -99.765625 L 90.328125 -99.765625 Z M 90.328125 -34.875 "/></g></g></g><g fill="#098aea" fill-opacity="1"><g transform="translate(1066.82083, 213.374983)"><g><path d="M 30.609375 -17.234375 L 50.890625 -17.234375 C 58.046875 -17.234375 63.613281 -20.21875 67.59375 -26.1875 C 71.570312 -32.164062 73.5625 -40.359375 73.5625 -50.765625 C 73.5625 -61.484375 71.726562 -69.46875 68.0625 -74.71875 C 64.394531 -79.96875 58.8125 -82.59375 51.3125 -82.59375 L 30.609375 -82.59375 Z M 10.171875 -99.765625 L 54.21875 -99.765625 C 67.707031 -99.765625 77.84375 -95.382812 84.625 -86.625 C 91.414062 -77.875 94.8125 -66.414062 94.8125 -52.25 C 94.8125 -36.601562 91.203125 -23.984375 83.984375 -14.390625 C 76.765625 -4.796875 66.570312 0 53.40625 0 L 10.171875 0 Z M 10.171875 -99.765625 "/></g></g></g></svg>